<svg version="1.1" viewBox="0.0 0.0 384.0 768.0" fill="none" stroke="none" stroke-linecap="square" stroke-miterlimit="10" xmlns:xlink="http://www.w3.org/1999/xlink" xmlns="http://www.w3.org/2000/svg"><clipPath id="g24133abd738_0_5.0"><path d="m0 0l384.0 0l0 768.0l-384.0 0l0 -768.0z" clip-rule="nonzero"/></clipPath><g clip-path="url(#g24133abd738_0_5.0)"><path fill="#ffffff" d="m0 0l384.0 0l0 768.0l-384.0 0z" fill-rule="evenodd"/><path fill="#4285f4" d="m0.005249344 0l384.0 0l0 768.8189l-384.0 0z" fill-rule="evenodd"/><path fill="#0c5394" d="m0 384.0l384.0 0l0 384.8189l-384.0 0z" fill-rule="evenodd"/><path fill="#ffffff" d="m517.4908 358.46457l276.8819 0l0 278.51968l-276.8819 0z" fill-rule="evenodd"/><path fill="#ffffff" d="m53.564304 131.86351l0 0c0 -2.278717 1.8472672 -4.1259766 4.125984 -4.1259766l268.62994 0c1.0942688 0 2.1437378 0.43469238 2.917511 1.2084656c0.7737732 0.7737732 1.2084656 1.8232422 1.2084656 2.917511l0 0l0 0c0 2.2787323 -1.8472595 4.125992 -4.1259766 4.125992l-268.62994 0c-2.278717 0 -4.125984 -1.8472595 -4.125984 -4.125992z" fill-rule="evenodd"/><path fill="#ffffff" d="m53.564304 663.2703l0 0c0 -2.2786865 1.8472672 -4.1259766 4.125984 -4.1259766l268.62994 0c1.0942688 0 2.1437378 0.43469238 2.917511 1.2084961c0.7737732 0.7737427 1.2084656 1.8232422 1.2084656 2.9174805l0 0l0 0c0 2.2787476 -1.8472595 4.1259766 -4.1259766 4.1259766l-268.62994 0c-2.278717 0 -4.125984 -1.847229 -4.125984 -4.1259766z" fill-rule="evenodd"/><path fill="#000000" fill-opacity="0.0" d="m16.24147 560.90814l351.5276 0l0 98.236206l-351.5276 0z" fill-rule="evenodd"/><path fill="#ffffff" d="m107.620674 650.7621q-2.8125 0 -5.53125 -1.59375q-2.703125 -1.578125 -6.890625 -4.890625q-3.109375 -2.5 -5.328125 -4.03125q-2.21875 -1.515625 -4.8125 -2.578125q-2.578125 -1.0625 -5.265625 -1.0625q-0.9375 0 -1.4375 0.0625l9.296875 -43.234375q-4.171875 1.671875 -6.453125 5.140625q-2.28125 3.46875 -2.28125 8.453125q0 2.3125 0.4375 3.21875q0.4375 0.90625 0.4375 1.03125q-3.359375 0 -5.015625 -1.40625q-1.65625 -1.40625 -1.65625 -4.65625q0 -3.984375 3.265625 -7.75q3.28125 -3.78125 8.390625 -6.125q5.125 -2.34375 10.234375 -2.34375q0.875 0 2.5 0.125l-9.609375 44.796875q1.75 0.4375 3.59375 1.28125q1.84375 0.84375 4.453125 2.28125q4.0625 2.171875 6.921875 3.328125q2.875 1.15625 6.0 1.15625q2.8125 0 5.234375 -1.0q-0.5 4.5625 -2.21875 7.171875q-1.703125 2.625 -4.265625 2.625zm-2.1195984 -15.34375q-4.625 0 -7.3125 -2.359375q-2.671875 -2.375 -2.671875 -7.5q0 -4.234375 1.75 -9.40625q1.75 -5.1875 5.609375 -8.953125q3.875 -3.78125 9.734375 -3.78125q7.984375 0 7.984375 9.96875l0 0.0625q0.1875 0.0625 0.6875 0.0625q2.0625 0 4.734375 -1.078125q2.6874924 -1.09375 4.8749924 -2.65625l0.5625 1.6875q-1.8125 1.921875 -4.7187424 3.265625q-2.890625 1.34375 -6.328125 1.90625q-0.5 5.671875 -2.5625 9.921875q-2.046875 4.234375 -5.296875 6.546875q-3.234375 2.3125 -7.046875 2.3125zm2.5 -5.609375q1.5 0 2.984375 -1.71875q1.5 -1.71875 2.625 -4.671875q1.125 -2.96875 1.625 -6.59375q-1.6875 -0.375 -1.6875 -2.625q0 -2.546875 1.9375 -3.359375q-0.125 -2.0625 -0.625 -2.84375q-0.5 -0.78125 -1.75 -0.78125q-2.0625 0 -4.0 3.0q-1.921875 2.984375 -3.109375 7.171875q-1.1875 4.1875 -1.1875 7.359375q0 3.0 0.6875 4.03125q0.6875 1.03125 2.5 1.03125zm23.264458 5.734375q-3.5468674 0 -5.9218674 -2.421875q-2.375 -2.4375 -2.375 -7.625q0 -4.609375 1.84375 -9.6875q1.84375 -5.09375 5.4843674 -8.609375q3.65625 -3.53125 8.703125 -3.53125q2.5625 0 3.8125 0.875q1.25 0.859375 1.25 2.296875l0 0.4375l0.68751526 -3.296875l8.984375 0l-4.5 21.203125q-0.25 0.9375 -0.25 2.0q0 2.6875 2.5625 2.6875q1.75 0 3.015625 -1.625q1.28125 -1.625 2.03125 -4.25l2.625 0q-2.3125 6.734375 -5.71875 9.140625q-3.390625 2.40625 -6.828125 2.40625q-2.6093903 0 -4.2031403 -1.46875q-1.59375 -1.46875 -1.90625 -4.265625q-1.8125 2.546875 -4.03125 4.140625q-2.203125 1.59375 -5.265625 1.59375zm4.0625 -6.046875q1.5625 0 3.078125 -1.46875q1.53125 -1.46875 2.09375 -4.03125l3.0 -14.09375q0 -0.8125 -0.625 -1.59375q-0.625 -0.78125 -1.9375 -0.78125q-2.5 0 -4.5 2.90625q-1.984375 2.890625 -3.109375 6.984375q-1.125 4.09375 -1.125 7.203125q0 3.125 0.90625 4.0q0.90625 0.875 2.21875 0.875zm28.75496 6.046875q-3.546875 0 -5.921875 -2.421875q-2.375 -2.4375 -2.375 -7.625q0 -4.609375 1.84375 -9.6875q1.84375 -5.09375 5.484375 -8.609375q3.65625 -3.53125 8.703125 -3.53125q2.5625 0 3.8125 0.875q1.25 0.859375 1.25 2.296875l0 0.25l3.046875 -14.34375l9.234375 -1.25l-7.171875 33.6875q-0.25 0.9375 -0.25 2.0q0 1.25 0.59375 1.78125q0.59375 0.53125 1.96875 0.53125q1.75 0 3.015625 -1.5q1.28125 -1.5 2.03125 -4.0l2.625 0q-3.8125 11.171875 -12.546875 11.171875q-2.546875 0 -4.140625 -1.375q-1.59375 -1.375 -1.96875 -3.984375q-1.625 2.484375 -3.90625 4.109375q-2.265625 1.625 -5.328125 1.625zm4.0625 -6.046875q1.5 0 3.015625 -1.375q1.53125 -1.375 2.09375 -3.8125l0 -0.3125l3.0625 -14.28125q-0.5625 -2.1875 -2.5625 -2.1875q-2.5 0 -4.5 2.90625q-1.984375 2.890625 -3.109375 6.984375q-1.125 4.09375 -1.125 7.203125q0 3.125 0.90625 4.0q0.90625 0.875 2.21875 0.875zm31.630035 -28.890625q-2.0625 0 -3.5 -1.4375q-1.4375 -1.4375 -1.4375 -3.5q0 -2.046875 1.4375 -3.515625q1.4375 -1.46875 3.5 -1.46875q2.0625 0 3.515625 1.46875q1.46875 1.46875 1.46875 3.515625q0 2.0625 -1.46875 3.5q-1.453125 1.4375 -3.515625 1.4375zm-4.25 34.9375q-2.984375 0 -4.828125 -1.875q-1.84375 -1.875 -1.84375 -5.609375q0 -1.5625 0.5 -4.0625l4.25 -20.015625l8.984375 0l-4.5 21.203125q-0.25 0.9375 -0.25 2.0q0 1.25 0.59375 1.78125q0.59375 0.53125 1.96875 0.53125q1.8125 0 3.359375 -1.53125q1.5625 -1.53125 2.25 -3.96875l2.625 0q-2.3125 6.734375 -5.9375 9.140625q-3.609375 2.40625 -7.171875 2.40625zm33.002045 0q-3.796875 0 -5.578125 -2.03125q-1.78125 -2.03125 -1.78125 -5.015625q0 -1.3125 0.3125 -2.96875q0.3125 -1.65625 0.65625 -3.203125q0.34375 -1.5625 0.46875 -2.0q0.5 -2.1875 0.9375 -4.3125q0.4375 -2.125 0.4375 -3.421875q0 -3.1875 -2.25 -3.1875q-1.625 0 -2.875 1.59375q-1.234375 1.59375 -1.984375 4.140625l-4.25 20.03125l-8.984375 0l6.625 -31.1875l8.984375 0l-0.6875 3.234375q3.109375 -3.484375 7.296875 -3.484375q3.171875 0 5.046875 1.75q1.875 1.734375 1.875 5.296875q0 1.8125 -0.4375 4.03125q-0.4375 2.203125 -1.25 5.390625q-0.5 1.921875 -0.90625 3.765625q-0.40625 1.84375 -0.40625 2.90625q0 1.25 0.5625 1.9375q0.5625 0.6875 1.9375 0.6875q1.875 0 3.0 -1.34375q1.125 -1.34375 2.234375 -4.15625l2.625 0q-2.3125 6.859375 -5.34375 9.203125q-3.015625 2.34375 -6.265625 2.34375zm19.975983 15.21875q-2.9375 0 -5.15625 -1.90625q-2.203125 -1.890625 -2.203125 -4.828125q0 -2.75 1.359375 -4.5q1.375 -1.734375 3.5625 -2.734375q2.1875 -1.0 5.859375 -2.125l0.5625 -2.625q-3.234375 3.5 -7.484375 3.5q-3.546875 0 -5.921875 -2.421875q-2.375 -2.4375 -2.375 -7.625q0 -4.609375 1.84375 -9.6875q1.84375 -5.09375 5.484375 -8.609375q3.65625 -3.53125 8.703125 -3.53125q2.5625 0 3.8124847 0.875q1.25 0.859375 1.25 2.296875l0 0.125l0.625 -2.984375l9.046875 0l-7.625 36.171875q-1.234375 6.0 -4.3906097 8.296875q-3.15625 2.3125 -6.953125 2.3125zm0.5625 -21.265625q1.4375 0 2.890625 -1.21875q1.46875 -1.21875 2.09375 -3.46875l3.1874847 -15.09375q-0.5 -2.1875 -2.5624847 -2.1875q-2.5 0 -4.5 2.90625q-1.984375 2.890625 -3.109375 6.984375q-1.125 4.09375 -1.125 7.203125q0 3.125 0.90625 4.0q0.90625 0.875 2.21875 0.875zm-2.0 15.71875q1.125 0 2.125 -1.15625q1.0 -1.15625 1.5625 -3.71875l0.734375 -3.671875q-3.296875 1.125 -5.109375 2.609375q-1.8125 1.5 -1.8125 3.875q0 0.75 0.75 1.40625q0.75 0.65625 1.75 0.65625zm27.259964 -9.796875q-2.0625 0 -3.5 -1.4375q-1.421875 -1.4375 -1.421875 -3.484375q0 -2.0625 1.421875 -3.53125q1.4375 -1.46875 3.5 -1.46875q2.0625 0 3.53125 1.46875q1.46875 1.46875 1.46875 3.53125q0 2.046875 -1.46875 3.484375q-1.46875 1.4375 -3.53125 1.4375zm14.671875 0q-2.0625 0 -3.5 -1.4375q-1.4375 -1.4375 -1.4375 -3.484375q0 -2.0625 1.4375 -3.53125q1.4375 -1.46875 3.5 -1.46875q2.046875 0 3.515625 1.46875q1.46875 1.46875 1.46875 3.53125q0 2.046875 -1.46875 3.484375q-1.46875 1.4375 -3.515625 1.4375zm15.28125 0q-2.0625 0 -3.5 -1.4375q-1.4375 -1.4375 -1.4375 -3.484375q0 -2.0625 1.4375 -3.53125q1.4375 -1.46875 3.5 -1.46875q2.0625 0 3.515625 1.46875q1.46875 1.46875 1.46875 3.53125q0 2.046875 -1.46875 3.484375q-1.453125 1.4375 -3.515625 1.4375z" fill-rule="nonzero"/><path fill="#000000" fill-opacity="0.0" d="m13.089239 29.501312l357.82678 0l0 98.23622l-357.82678 0z" fill-rule="evenodd"/><path fill="#ffffff" d="m81.41091 104.886536q-3.921875 0 -6.921875 -1.375q-3.0 -1.375 -4.625 -3.828125q-1.609375 -2.46875 -1.609375 -5.71875q0 -2.75 1.15625 -4.984375q1.15625 -2.25 3.109375 -3.5625q1.96875 -1.3125 4.34375 -1.3125q2.1875 0 3.671875 1.09375q1.5 1.09375 1.875 3.03125q-3.234375 0 -5.171875 1.71875q-1.9375 1.703125 -1.9375 4.640625q0 2.6875 1.625 4.3125q1.625 1.609375 4.296875 1.609375q3.3125 0 5.453125 -2.203125q2.15625 -2.21875 2.15625 -5.59375q0 -2.921875 -1.625 -5.546875q-1.609375 -2.625 -4.859375 -6.359375q-3.359375 -3.875 -5.078125 -6.640625q-1.71875 -2.78125 -1.71875 -6.09375q0 -3.25 1.8125 -5.828125q1.8125 -2.59375 4.984375 -4.09375q3.1875 -1.5 7.171875 -1.5q5.0625 0 8.078125 2.375q3.03125 2.375 3.03125 6.359375q0 2.625 -1.3125 4.25q-1.3125 1.625 -3.421875 1.625q-2.375 0 -3.8125 -1.9375q1.1875 -0.875 1.875 -2.3125q0.6875 -1.4375 0.6875 -3.0q0 -1.984375 -1.1875 -3.171875q-1.1875 -1.1875 -3.25 -1.1875q-2.484375 0 -4.078125 1.78125q-1.59375 1.78125 -1.59375 4.515625q0 2.5 1.4375 4.65625q1.4375 2.140625 4.484375 5.515625q2.5 2.6875 4.03125 4.625q1.53125 1.921875 2.609375 4.453125q1.09375 2.53125 1.09375 5.453125q0 4.0 -2.21875 7.25q-2.203125 3.234375 -6.046875 5.109375q-3.828125 1.875 -8.515625 1.875zm26.453247 -0.75q-2.984375 0 -4.828125 -1.875q-1.84375 -1.875 -1.84375 -5.609375q0 -1.5625 0.5 -4.0625l3.75 -17.53125l-2.0625 0l0.5 -2.484375l2.0625 0l1.859375 -8.625l9.234375 -1.234375l-2.109375 9.859375l3.734375 0l-0.5 2.484375l-3.734375 0l-4.0 18.71875q-0.25 0.9375 -0.25 2.0q0 1.25 0.59375 1.78125q0.59375 0.53125 1.96875 0.53125q1.8125 0 3.359375 -1.53125q1.5625 -1.53125 2.25 -3.96875l2.625 0q-2.3125 6.734375 -5.9375 9.140625q-3.609375 2.40625 -7.171875 2.40625zm19.59578 -0.125q-4.625 0 -7.3125 -2.359375q-2.671875 -2.375 -2.671875 -7.5q0 -4.234375 1.75 -9.40625q1.75 -5.1875 5.609375 -8.953125q3.8749924 -3.78125 9.734367 -3.78125q7.984375 0 7.984375 9.96875l0 0.0625q0.1875 0.0625 0.6875 0.0625q2.0625 0 4.734375 -1.078125q2.6875 -1.09375 4.875 -2.65625l0.5625 1.6875q-1.8125 1.921875 -4.71875 3.265625q-2.890625 1.34375 -6.328125 1.90625q-0.5 5.671875 -2.5625 9.921875q-2.046875 4.234375 -5.296875 6.546875q-3.234375 2.3125 -7.0468674 2.3125zm2.4999924 -5.609375q1.5 0 2.984375 -1.71875q1.5 -1.71875 2.625 -4.671875q1.125 -2.96875 1.625 -6.59375q-1.6875 -0.375 -1.6875 -2.625q0 -2.546875 1.9375 -3.359375q-0.125 -2.0625 -0.625 -2.84375q-0.5 -0.78125 -1.75 -0.78125q-2.0625 0 -4.0 3.0q-1.921875 2.984375 -3.1093674 7.171875q-1.1875 4.1875 -1.1875 7.359375q0 3.0 0.6875 4.03125q0.6874924 1.03125 2.4999924 1.03125zm20.514465 -28.140625l8.984375 0l-0.984375 4.671875q3.109375 -2.671875 7.296875 -2.671875q3.484375 0 5.546875 2.3125q2.0625 2.296875 2.0625 7.53125q0 4.9375 -1.4375 9.96875q-1.4375 5.015625 -4.875 8.546875q-3.421875 3.515625 -9.03125 3.515625q-4.0 0 -5.3125 -2.25l-3.234375 15.234375l-9.421875 2.234375l10.40625 -49.09375zm5.625 28.453125q3.0 0 4.953125 -2.8125q1.96875 -2.8125 2.875 -6.703125q0.90625 -3.90625 0.90625 -7.28125q0 -5.171875 -3.125 -5.171875q-1.125 0 -2.28125 0.8125q-1.140625 0.8125 -2.015625 2.25l-3.6875 17.46875q0.5 1.4375 2.375 1.4375zm25.011292 5.421875q-2.984375 0 -4.828125 -1.875q-1.84375 -1.875 -1.84375 -5.609375q0 -1.5625 0.5 -4.0625l4.25 -20.015625l8.984375 0l-4.5 21.203125q-0.1875 0.75 -0.1875 1.5625q0 2.75 1.875 2.75q1.75 0 2.984375 -1.46875q1.25 -1.46875 2.0 -4.03125l4.25 -20.015625l8.984375 0l-4.5 21.203125q-0.3125 1.5625 -0.3125 2.25q0 2.0625 2.125 2.0625q2.875 0 5.328125 -3.625q2.46875 -3.625 3.96875 -8.609375q1.5 -4.984375 1.5 -8.609375q-0.125 0.3125 -0.8125 0.46875q-0.6875 0.15625 -1.1875 0.15625q-1.0625 0 -1.65625 -1.0q-0.59375 -1.0 -0.59375 -2.1875q0 -1.5 0.96875 -2.421875q0.96875 -0.9375 2.90625 -0.9375q2.0625 0 2.984375 1.53125q0.9375 1.515625 0.9375 3.890625q0 5.609375 -1.9375 12.015625q-1.921875 6.390625 -5.921875 10.890625q-3.984375 4.484375 -9.921875 4.484375q-3.046875 0 -4.984375 -1.3125q-1.9375 -1.3125 -2.5 -3.921875q-3.484375 5.234375 -8.859375 5.234375zm42.552658 0q-3.546875 0 -5.921875 -2.421875q-2.375 -2.4375 -2.375 -7.625q0 -4.609375 1.84375 -9.6875q1.84375 -5.09375 5.484375 -8.609375q3.65625 -3.53125 8.703125 -3.53125q2.5625 0 3.8125 0.875q1.25 0.859375 1.25 2.296875l0 0.4375l0.6875 -3.296875l8.984375 0l-4.5 21.203125q-0.25 0.9375 -0.25 2.0q0 2.6875 2.5625 2.6875q1.75 0 3.015625 -1.625q1.28125 -1.625 2.03125 -4.25l2.625 0q-2.3125 6.734375 -5.71875 9.140625q-3.390625 2.40625 -6.828125 2.40625q-2.609375 0 -4.203125 -1.46875q-1.59375 -1.46875 -1.90625 -4.265625q-1.8125 2.546875 -4.03125 4.140625q-2.203125 1.59375 -5.265625 1.59375zm4.0625 -6.046875q1.5625 0 3.078125 -1.46875q1.53125 -1.46875 2.09375 -4.03125l3.0 -14.09375q0 -0.8125 -0.625 -1.59375q-0.625 -0.78125 -1.9375 -0.78125q-2.5 0 -4.5 2.90625q-1.984375 2.890625 -3.109375 6.984375q-1.125 4.09375 -1.125 7.203125q0 3.125 0.90625 4.0q0.90625 0.875 2.21875 0.875zm27.442444 6.046875q-2.984375 0 -4.828125 -1.875q-1.84375 -1.875 -1.84375 -5.609375q0 -1.5625 0.5 -4.0625l3.75 -17.53125l-2.0625 0l0.5 -2.484375l2.0625 0l1.859375 -8.625l9.23439 -1.234375l-2.109375 9.859375l3.734375 0l-0.5 2.484375l-3.734375 0l-4.0 18.71875q-0.25 0.9375 -0.25 2.0q0 1.25 0.59375 1.78125q0.59375 0.53125 1.96875 0.53125q1.8125 0 3.359375 -1.53125q1.5625 -1.53125 2.25 -3.96875l2.625 0q-2.3125 6.734375 -5.9375 9.140625q-3.609375 2.40625 -7.1718903 2.40625zm19.40828 0q-4.609375 0 -7.171875 -2.40625q-2.5625 -2.40625 -2.5625 -7.515625q0 -4.296875 1.71875 -9.46875q1.71875 -5.1875 5.484375 -8.953125q3.78125 -3.78125 9.578125 -3.78125q3.75 0 5.328125 1.625q1.59375 1.609375 1.59375 4.109375q0 2.1875 -0.9375 3.375q-0.921875 1.171875 -2.359375 1.171875q-1.0625 0 -2.1875 -0.75q0.75 -2.046875 0.75 -3.671875q0 -1.1875 -0.4375 -1.875q-0.4375 -0.6875 -1.3125 -0.6875q-1.875 0 -3.75 3.0625q-1.859375 3.0625 -3.046875 7.4375q-1.1875 4.359375 -1.1875 7.84375q0 3.0625 1.0625 4.15625q1.0625 1.09375 3.4375 1.09375q3.359375 0 5.765625 -1.5625q2.40625 -1.5625 5.265625 -4.75l2.125 0q-6.921875 11.546875 -17.15625 11.546875zm36.442352 0q-3.3125 0 -4.8125 -2.0q-1.5 -2.0 -1.5 -5.046875q0 -1.3125 0.3125 -2.96875q0.3125 -1.65625 0.65625 -3.203125q0.34375 -1.5625 0.46875 -2.0q0.5 -2.1875 0.9375 -4.3125q0.4375 -2.125 0.4375 -3.421875q0 -3.1875 -2.25 -3.1875q-1.5 0 -2.71875 1.375q-1.203125 1.375 -1.953125 3.609375l-4.4375 20.78125l-8.984375 0l9.046875 -42.421875l9.234375 -1.25l-3.359375 15.65625q3.109375 -3.421875 7.296875 -3.421875q3.171875 0 5.046875 1.75q1.875 1.734375 1.875 5.296875q0 1.8125 -0.4375 4.03125q-0.4375 2.203125 -1.25 5.390625q-0.5 1.921875 -0.90625 3.765625q-0.40625 1.84375 -0.40625 2.90625q0 1.25 0.5625 1.9375q0.5625 0.6875 1.9375 0.6875q1.5 0 2.0625 -0.375q-0.375 3.171875 -2.28125 4.796875q-1.90625 1.625 -4.578125 1.625z" fill-rule="nonzero"/><path fill="#4285f4" d="m58.09974 384.0l0 0c0 -73.95398 59.951538 -133.90552 133.90552 -133.90552l0 0c35.513947 0 69.57333 14.10788 94.685486 39.22003c25.112152 25.112152 39.22003 59.17154 39.22003 94.685486l0 0c0 73.95398 -59.951538 133.90552 -133.90552 133.90552l0 0c-73.95397 0 -133.90552 -59.951538 -133.90552 -133.90552z" fill-rule="evenodd"/><path stroke="#ffffff" stroke-width="12.0" stroke-linejoin="round" stroke-linecap="butt" d="m58.09974 384.0l0 0c0 -73.95398 59.951538 -133.90552 133.90552 -133.90552l0 0c35.513947 0 69.57333 14.10788 94.685486 39.22003c25.112152 25.112152 39.22003 59.17154 39.22003 94.685486l0 0c0 73.95398 -59.951538 133.90552 -133.90552 133.90552l0 0c-73.95397 0 -133.90552 -59.951538 -133.90552 -133.90552z" fill-rule="evenodd"/><path fill="#ffffff" d="m192.00525 388.1261l0 0c-2.278717 0 -4.1259766 -1.8472595 -4.1259766 -4.1259766l0 -112.8819c0 -1.0942688 0.43469238 -2.1437378 1.2084656 -2.917511c0.7737732 -0.7737732 1.8232269 -1.2084656 2.917511 -1.2084656l0 0l0 0c2.278717 0 4.125992 1.8472595 4.125992 4.1259766l0 112.8819l0 0c0 2.278717 -1.8472748 4.1259766 -4.125992 4.1259766z" fill-rule="evenodd"/><path fill="#ffffff" d="m192.0 489.5748l0 0c2.278717 0 4.125992 1.8472595 4.125992 4.1259766l0 20.59842c0 1.0942993 -0.43470764 2.1437378 -1.2084808 2.9175415c-0.7737732 0.7737427 -1.8232269 1.208435 -2.917511 1.208435l0 0l0 0c-2.278717 0 -4.125992 -1.847229 -4.125992 -4.1259766l0 -20.59842c0 -2.278717 1.8472748 -4.1259766 4.125992 -4.1259766z" fill-rule="evenodd"/><path fill="#ffffff" d="m269.7961 461.79572l0 0c1.6090088 -1.6090088 4.217743 -1.6090088 5.8267517 0l14.582672 14.582672c0.77267456 0.77267456 1.2067871 1.8206787 1.2067871 2.913391c0 1.0927429 -0.43411255 2.1407166 -1.2067871 2.913391l0 0l0 0c-1.6090088 1.6090088 -4.217743 1.6090088 -5.8267517 0l-14.582672 -14.582672c-1.6090393 -1.6090393 -1.6090393 -4.2177734 0 -5.826782z" fill-rule="evenodd"/><path fill="#ffffff" d="m114.20428 461.7961l0 0c1.609024 1.6090088 1.609024 4.217743 0 5.8267517l-14.582672 14.582672c-0.7726822 0.77267456 -1.8206558 1.2067871 -2.913391 1.2067871c-1.0927277 0 -2.1407013 -0.43411255 -2.9133835 -1.2067871l0 0l0 0c-1.6090164 -1.6090088 -1.6090164 -4.217743 0 -5.8267517l14.58268 -14.582672c1.6090164 -1.6090393 4.2177505 -1.6090393 5.826767 0z" fill-rule="evenodd"/><path fill="#ffffff" d="m57.580643 384.00006l0 0c0 -2.278717 1.8472633 -4.126007 4.125984 -4.126007l20.598427 0c1.0942764 0 2.1437378 0.4347229 2.917511 1.2084961c0.77376556 0.7737732 1.2084732 1.8232117 1.2084732 2.917511l0 0l0 0c0 2.278717 -1.8472672 4.1259766 -4.125984 4.1259766l-20.598427 0c-2.2787209 0 -4.125984 -1.8472595 -4.125984 -4.1259766z" fill-rule="evenodd"/><path fill="#ffffff" d="m114.2039 306.61505l0 0c-1.6090164 1.6090088 -4.2177505 1.6090088 -5.8267746 0l-14.582672 -14.582672c-0.7726822 -0.7727051 -1.2067642 -1.8206787 -1.2067642 -2.913391c0 -1.0927429 0.43408203 -2.1407166 1.2067642 -2.913391l0 0l0 0c1.6090164 -1.6090088 4.2177505 -1.6090088 5.826767 0l14.58268 14.582672c1.6090164 1.6090088 1.6090164 4.217743 0 5.826782z" fill-rule="evenodd"/><path fill="#ffffff" d="m290.20953 285.7948l0 0c1.6090088 1.6090088 1.6090088 4.217743 0 5.8267517l-14.582672 14.582672c-0.77267456 0.77267456 -1.8206787 1.2067871 -2.913391 1.2067871c-1.0927429 0 -2.1407166 -0.43411255 -2.913391 -1.2067871l0 0l0 0c-1.6090088 -1.6090088 -1.6090088 -4.217743 0 -5.8267517l14.582672 -14.582672c1.6090393 -1.6090393 4.2177734 -1.6090393 5.826782 0z" fill-rule="evenodd"/><path fill="#ffffff" d="m187.87915 384.0l0 0c0 -2.278717 1.8472748 -4.1259766 4.125992 -4.1259766l112.88188 0c1.0942688 0 2.1437378 0.43469238 2.917511 1.2084656c0.7737732 0.7737732 1.2084656 1.8232422 1.2084656 2.917511l0 0l0 0c0 2.278717 -1.8472595 4.1259766 -4.1259766 4.1259766l-112.88188 0l0 0c-2.278717 0 -4.125992 -1.8472595 -4.125992 -4.1259766z" fill-rule="evenodd"/><path fill="#ffffff" d="m181.7961 373.79572l0 0c1.609024 -1.6090088 4.217758 -1.6090088 5.826767 0l14.582687 14.582672c0.77267456 0.77267456 1.2067566 1.8206787 1.2067566 2.913391c0 1.0927429 -0.43408203 2.1407166 -1.2067566 2.913391l0 0l0 0c-1.609024 1.6090088 -4.217758 1.6090088 -5.826782 0l-14.582672 -14.582672c-1.609024 -1.6090393 -1.609024 -4.2177734 0 -5.826782z" fill-rule="evenodd"/></g></svg>