<svg version="1.1" viewBox="0.0 0.0 384.0 768.0" fill="none" stroke="none" stroke-linecap="square" stroke-miterlimit="10" xmlns:xlink="http://www.w3.org/1999/xlink" xmlns="http://www.w3.org/2000/svg"><clipPath id="g23debb46d79_0_45.0"><path d="m0 0l384.0 0l0 768.0l-384.0 0l0 -768.0z" clip-rule="nonzero"/></clipPath><g clip-path="url(#g23debb46d79_0_45.0)"><path fill="#ffffff" d="m0 0l384.0 0l0 768.0l-384.0 0z" fill-rule="evenodd"/><path fill="#4285f4" d="m0.005249344 0l384.0 0l0 768.8189l-384.0 0z" fill-rule="evenodd"/><path fill="#0b5394" d="m0 768.0l0 -768.0l384.0 768.0z" fill-rule="evenodd"/><path fill="#000000" fill-opacity="0.0" d="m13.089239 29.501312l357.82678 0l0 98.23622l-357.82678 0z" fill-rule="evenodd"/><path fill="#ffffff" d="m81.41091 104.886536q-3.921875 0 -6.921875 -1.375q-3.0 -1.375 -4.625 -3.828125q-1.609375 -2.46875 -1.609375 -5.71875q0 -2.75 1.15625 -4.984375q1.15625 -2.25 3.109375 -3.5625q1.96875 -1.3125 4.34375 -1.3125q2.1875 0 3.671875 1.09375q1.5 1.09375 1.875 3.03125q-3.234375 0 -5.171875 1.71875q-1.9375 1.703125 -1.9375 4.640625q0 2.6875 1.625 4.3125q1.625 1.609375 4.296875 1.609375q3.3125 0 5.453125 -2.203125q2.15625 -2.21875 2.15625 -5.59375q0 -2.921875 -1.625 -5.546875q-1.609375 -2.625 -4.859375 -6.359375q-3.359375 -3.875 -5.078125 -6.640625q-1.71875 -2.78125 -1.71875 -6.09375q0 -3.25 1.8125 -5.828125q1.8125 -2.59375 4.984375 -4.09375q3.1875 -1.5 7.171875 -1.5q5.0625 0 8.078125 2.375q3.03125 2.375 3.03125 6.359375q0 2.625 -1.3125 4.25q-1.3125 1.625 -3.421875 1.625q-2.375 0 -3.8125 -1.9375q1.1875 -0.875 1.875 -2.3125q0.6875 -1.4375 0.6875 -3.0q0 -1.984375 -1.1875 -3.171875q-1.1875 -1.1875 -3.25 -1.1875q-2.484375 0 -4.078125 1.78125q-1.59375 1.78125 -1.59375 4.515625q0 2.5 1.4375 4.65625q1.4375 2.140625 4.484375 5.515625q2.5 2.6875 4.03125 4.625q1.53125 1.921875 2.609375 4.453125q1.09375 2.53125 1.09375 5.453125q0 4.0 -2.21875 7.25q-2.203125 3.234375 -6.046875 5.109375q-3.828125 1.875 -8.515625 1.875zm26.453247 -0.75q-2.984375 0 -4.828125 -1.875q-1.84375 -1.875 -1.84375 -5.609375q0 -1.5625 0.5 -4.0625l3.75 -17.53125l-2.0625 0l0.5 -2.484375l2.0625 0l1.859375 -8.625l9.234375 -1.234375l-2.109375 9.859375l3.734375 0l-0.5 2.484375l-3.734375 0l-4.0 18.71875q-0.25 0.9375 -0.25 2.0q0 1.25 0.59375 1.78125q0.59375 0.53125 1.96875 0.53125q1.8125 0 3.359375 -1.53125q1.5625 -1.53125 2.25 -3.96875l2.625 0q-2.3125 6.734375 -5.9375 9.140625q-3.609375 2.40625 -7.171875 2.40625zm19.59578 -0.125q-4.625 0 -7.3125 -2.359375q-2.671875 -2.375 -2.671875 -7.5q0 -4.234375 1.75 -9.40625q1.75 -5.1875 5.609375 -8.953125q3.8749924 -3.78125 9.734367 -3.78125q7.984375 0 7.984375 9.96875l0 0.0625q0.1875 0.0625 0.6875 0.0625q2.0625 0 4.734375 -1.078125q2.6875 -1.09375 4.875 -2.65625l0.5625 1.6875q-1.8125 1.921875 -4.71875 3.265625q-2.890625 1.34375 -6.328125 1.90625q-0.5 5.671875 -2.5625 9.921875q-2.046875 4.234375 -5.296875 6.546875q-3.234375 2.3125 -7.0468674 2.3125zm2.4999924 -5.609375q1.5 0 2.984375 -1.71875q1.5 -1.71875 2.625 -4.671875q1.125 -2.96875 1.625 -6.59375q-1.6875 -0.375 -1.6875 -2.625q0 -2.546875 1.9375 -3.359375q-0.125 -2.0625 -0.625 -2.84375q-0.5 -0.78125 -1.75 -0.78125q-2.0625 0 -4.0 3.0q-1.921875 2.984375 -3.1093674 7.171875q-1.1875 4.1875 -1.1875 7.359375q0 3.0 0.6875 4.03125q0.6874924 1.03125 2.4999924 1.03125zm20.514465 -28.140625l8.984375 0l-0.984375 4.671875q3.109375 -2.671875 7.296875 -2.671875q3.484375 0 5.546875 2.3125q2.0625 2.296875 2.0625 7.53125q0 4.9375 -1.4375 9.96875q-1.4375 5.015625 -4.875 8.546875q-3.421875 3.515625 -9.03125 3.515625q-4.0 0 -5.3125 -2.25l-3.234375 15.234375l-9.421875 2.234375l10.40625 -49.09375zm5.625 28.453125q3.0 0 4.953125 -2.8125q1.96875 -2.8125 2.875 -6.703125q0.90625 -3.90625 0.90625 -7.28125q0 -5.171875 -3.125 -5.171875q-1.125 0 -2.28125 0.8125q-1.140625 0.8125 -2.015625 2.25l-3.6875 17.46875q0.5 1.4375 2.375 1.4375zm25.011292 5.421875q-2.984375 0 -4.828125 -1.875q-1.84375 -1.875 -1.84375 -5.609375q0 -1.5625 0.5 -4.0625l4.25 -20.015625l8.984375 0l-4.5 21.203125q-0.1875 0.75 -0.1875 1.5625q0 2.75 1.875 2.75q1.75 0 2.984375 -1.46875q1.25 -1.46875 2.0 -4.03125l4.25 -20.015625l8.984375 0l-4.5 21.203125q-0.3125 1.5625 -0.3125 2.25q0 2.0625 2.125 2.0625q2.875 0 5.328125 -3.625q2.46875 -3.625 3.96875 -8.609375q1.5 -4.984375 1.5 -8.609375q-0.125 0.3125 -0.8125 0.46875q-0.6875 0.15625 -1.1875 0.15625q-1.0625 0 -1.65625 -1.0q-0.59375 -1.0 -0.59375 -2.1875q0 -1.5 0.96875 -2.421875q0.96875 -0.9375 2.90625 -0.9375q2.0625 0 2.984375 1.53125q0.9375 1.515625 0.9375 3.890625q0 5.609375 -1.9375 12.015625q-1.921875 6.390625 -5.921875 10.890625q-3.984375 4.484375 -9.921875 4.484375q-3.046875 0 -4.984375 -1.3125q-1.9375 -1.3125 -2.5 -3.921875q-3.484375 5.234375 -8.859375 5.234375zm42.552658 0q-3.546875 0 -5.921875 -2.421875q-2.375 -2.4375 -2.375 -7.625q0 -4.609375 1.84375 -9.6875q1.84375 -5.09375 5.484375 -8.609375q3.65625 -3.53125 8.703125 -3.53125q2.5625 0 3.8125 0.875q1.25 0.859375 1.25 2.296875l0 0.4375l0.6875 -3.296875l8.984375 0l-4.5 21.203125q-0.25 0.9375 -0.25 2.0q0 2.6875 2.5625 2.6875q1.75 0 3.015625 -1.625q1.28125 -1.625 2.03125 -4.25l2.625 0q-2.3125 6.734375 -5.71875 9.140625q-3.390625 2.40625 -6.828125 2.40625q-2.609375 0 -4.203125 -1.46875q-1.59375 -1.46875 -1.90625 -4.265625q-1.8125 2.546875 -4.03125 4.140625q-2.203125 1.59375 -5.265625 1.59375zm4.0625 -6.046875q1.5625 0 3.078125 -1.46875q1.53125 -1.46875 2.09375 -4.03125l3.0 -14.09375q0 -0.8125 -0.625 -1.59375q-0.625 -0.78125 -1.9375 -0.78125q-2.5 0 -4.5 2.90625q-1.984375 2.890625 -3.109375 6.984375q-1.125 4.09375 -1.125 7.203125q0 3.125 0.90625 4.0q0.90625 0.875 2.21875 0.875zm27.442444 6.046875q-2.984375 0 -4.828125 -1.875q-1.84375 -1.875 -1.84375 -5.609375q0 -1.5625 0.5 -4.0625l3.75 -17.53125l-2.0625 0l0.5 -2.484375l2.0625 0l1.859375 -8.625l9.23439 -1.234375l-2.109375 9.859375l3.734375 0l-0.5 2.484375l-3.734375 0l-4.0 18.71875q-0.25 0.9375 -0.25 2.0q0 1.25 0.59375 1.78125q0.59375 0.53125 1.96875 0.53125q1.8125 0 3.359375 -1.53125q1.5625 -1.53125 2.25 -3.96875l2.625 0q-2.3125 6.734375 -5.9375 9.140625q-3.609375 2.40625 -7.1718903 2.40625zm19.40828 0q-4.609375 0 -7.171875 -2.40625q-2.5625 -2.40625 -2.5625 -7.515625q0 -4.296875 1.71875 -9.46875q1.71875 -5.1875 5.484375 -8.953125q3.78125 -3.78125 9.578125 -3.78125q3.75 0 5.328125 1.625q1.59375 1.609375 1.59375 4.109375q0 2.1875 -0.9375 3.375q-0.921875 1.171875 -2.359375 1.171875q-1.0625 0 -2.1875 -0.75q0.75 -2.046875 0.75 -3.671875q0 -1.1875 -0.4375 -1.875q-0.4375 -0.6875 -1.3125 -0.6875q-1.875 0 -3.75 3.0625q-1.859375 3.0625 -3.046875 7.4375q-1.1875 4.359375 -1.1875 7.84375q0 3.0625 1.0625 4.15625q1.0625 1.09375 3.4375 1.09375q3.359375 0 5.765625 -1.5625q2.40625 -1.5625 5.265625 -4.75l2.125 0q-6.921875 11.546875 -17.15625 11.546875zm36.442352 0q-3.3125 0 -4.8125 -2.0q-1.5 -2.0 -1.5 -5.046875q0 -1.3125 0.3125 -2.96875q0.3125 -1.65625 0.65625 -3.203125q0.34375 -1.5625 0.46875 -2.0q0.5 -2.1875 0.9375 -4.3125q0.4375 -2.125 0.4375 -3.421875q0 -3.1875 -2.25 -3.1875q-1.5 0 -2.71875 1.375q-1.203125 1.375 -1.953125 3.609375l-4.4375 20.78125l-8.984375 0l9.046875 -42.421875l9.234375 -1.25l-3.359375 15.65625q3.109375 -3.421875 7.296875 -3.421875q3.171875 0 5.046875 1.75q1.875 1.734375 1.875 5.296875q0 1.8125 -0.4375 4.03125q-0.4375 2.203125 -1.25 5.390625q-0.5 1.921875 -0.90625 3.765625q-0.40625 1.84375 -0.40625 2.90625q0 1.25 0.5625 1.9375q0.5625 0.6875 1.9375 0.6875q1.5 0 2.0625 -0.375q-0.375 3.171875 -2.28125 4.796875q-1.90625 1.625 -4.578125 1.625z" fill-rule="nonzero"/><path fill="#ffffff" d="m21.84252 590.7247l0 0c0 -6.67395 5.4102936 -12.0842285 12.08423 -12.0842285l316.14648 0c3.204956 0 6.2786255 1.2731323 8.544861 3.5393677c2.2662354 2.2662354 3.5393677 5.339905 3.5393677 8.544861l0 48.33545c0 6.67395 -5.4102783 12.0842285 -12.0842285 12.0842285l-316.14648 0l0 0c-6.673937 0 -12.08423 -5.4102783 -12.08423 -12.0842285z" fill-rule="evenodd"/><path fill="#ffffff" d="m53.564304 131.86351l0 0c0 -2.278717 1.8472672 -4.1259766 4.125984 -4.1259766l268.62994 0c1.0942688 0 2.1437378 0.43469238 2.917511 1.2084656c0.7737732 0.7737732 1.2084656 1.8232422 1.2084656 2.917511l0 0l0 0c0 2.2787323 -1.8472595 4.125992 -4.1259766 4.125992l-268.62994 0c-2.278717 0 -4.125984 -1.8472595 -4.125984 -4.125992z" fill-rule="evenodd"/><path fill="#ffffff" d="m53.559055 566.51447l0 0c0 -2.2787476 1.8472672 -4.1260376 4.125984 -4.1260376l268.62994 0c1.0942688 0 2.1437378 0.43475342 2.917511 1.2084961c0.7737732 0.7737427 1.2084656 1.8232422 1.2084656 2.9175415l0 0l0 0c0 2.2786865 -1.8472595 4.1259766 -4.1259766 4.1259766l-268.62994 0c-2.278717 0 -4.125984 -1.84729 -4.125984 -4.1259766z" fill-rule="evenodd"/><path fill="#ffffff" d="m53.564304 663.2703l0 0c0 -2.2786865 1.8472672 -4.1259766 4.125984 -4.1259766l268.62994 0c1.0942688 0 2.1437378 0.43469238 2.917511 1.2084961c0.7737732 0.7737427 1.2084656 1.8232422 1.2084656 2.9174805l0 0l0 0c0 2.2787476 -1.8472595 4.1259766 -4.1259766 4.1259766l-268.62994 0c-2.278717 0 -4.125984 -1.847229 -4.125984 -4.1259766z" fill-rule="evenodd"/></g></svg>